<svg xmlns="http://www.w3.org/2000/svg" width="520" height="520" viewBox="0 0 520 520">
<g fill="#241f18" fill-opacity="0.055" stroke="#241f18" stroke-opacity="0.055">
<g transform="translate(71.6 61.6) rotate(306) scale(0.88)">
    <path d="M0,-4 C-15,-4 -15,11 0,21 C15,11 15,-4 0,-4 Z"/>
    <path d="M0,-4 L-8,-13 L0,-8 L8,-13 Z"/>
    <circle cx="-5" cy="6" r="1.1"/><circle cx="5" cy="6" r="1.1"/>
    <circle cx="0" cy="12" r="1.1"/><circle cx="-6" cy="14" r="1.1"/><circle cx="6" cy="14" r="1.1"/></g>
<g transform="translate(196.7 50.3) rotate(224) scale(0.98)">
    <path d="M0,-15 C-2,-8 -4,-2 -7,3 M0,-15 C2,-6 5,0 7,5" fill="none" stroke-width="2.4"/>
    <circle cx="-7" cy="10" r="8"/>
    <circle cx="7" cy="12" r="8"/>
    <ellipse cx="2" cy="-16" rx="5" ry="2.6" transform="rotate(20 2 -16)"/></g>
<g transform="translate(308.7 89.8) rotate(268) scale(0.70)">
    <path d="M0,-4 C-15,-4 -15,11 0,21 C15,11 15,-4 0,-4 Z"/>
    <path d="M0,-4 L-8,-13 L0,-8 L8,-13 Z"/>
    <circle cx="-5" cy="6" r="1.1"/><circle cx="5" cy="6" r="1.1"/>
    <circle cx="0" cy="12" r="1.1"/><circle cx="-6" cy="14" r="1.1"/><circle cx="6" cy="14" r="1.1"/></g>
<g transform="translate(455.0 77.1) rotate(219) scale(0.55)">
    <path d="M0,-15 C-2,-8 -4,-2 -7,3 M0,-15 C2,-6 5,0 7,5" fill="none" stroke-width="2.4"/>
    <circle cx="-7" cy="10" r="8"/>
    <circle cx="7" cy="12" r="8"/>
    <ellipse cx="2" cy="-16" rx="5" ry="2.6" transform="rotate(20 2 -16)"/></g>
<g transform="translate(86.9 165.8) rotate(213) scale(0.57)">
    <ellipse cx="0" cy="7" rx="13" ry="20"/>
    <path d="M0,-13 L-3,-28 L2,-15 Z" transform="rotate(-35 0 -13)"/>
    <path d="M0,-13 L-2,-30 L3,-15 Z" transform="rotate(-15 0 -13)"/>
    <path d="M0,-13 L-2,-31 L3,-16 Z"/>
    <path d="M0,-13 L2,-30 L-3,-15 Z" transform="rotate(15 0 -13)"/>
    <path d="M0,-13 L3,-28 L-2,-15 Z" transform="rotate(35 0 -13)"/></g>
<g transform="translate(166.5 174.6) rotate(282) scale(0.82)">
    <circle cx="0" cy="3" r="16"/>
    <rect x="-1.6" y="-14" width="3.2" height="9" rx="1.6"/>
    <ellipse cx="6" cy="-13" rx="6" ry="3" transform="rotate(-30 6 -13)"/></g>
<g transform="translate(303.7 217.3) rotate(175) scale(0.95)">
    <ellipse cx="0" cy="7" rx="13" ry="20"/>
    <path d="M0,-13 L-3,-28 L2,-15 Z" transform="rotate(-35 0 -13)"/>
    <path d="M0,-13 L-2,-30 L3,-15 Z" transform="rotate(-15 0 -13)"/>
    <path d="M0,-13 L-2,-31 L3,-16 Z"/>
    <path d="M0,-13 L2,-30 L-3,-15 Z" transform="rotate(15 0 -13)"/>
    <path d="M0,-13 L3,-28 L-2,-15 Z" transform="rotate(35 0 -13)"/></g>
<g transform="translate(451.7 164.9) rotate(18) scale(0.83)">
    <circle cx="0" cy="-9" r="5"/>
    <circle cx="-6" cy="-3" r="5"/><circle cx="6" cy="-3" r="5"/>
    <circle cx="-10" cy="4" r="5"/><circle cx="0" cy="5" r="5"/><circle cx="10" cy="4" r="5"/>
    <circle cx="-4" cy="12" r="5"/><circle cx="6" cy="13" r="5"/>
    <rect x="-1.4" y="-20" width="2.8" height="8" rx="1.4"/>
    <ellipse cx="5" cy="-19" rx="5" ry="2.6" transform="rotate(-25 5 -19)"/></g>
<g transform="translate(48.4 334.5) rotate(75) scale(0.70)">
    <circle cx="0" cy="-4" r="9"/>
    <circle cx="0" cy="12" r="14"/>
    <rect x="-1.4" y="-19" width="2.8" height="7" rx="1.4"/></g>
<g transform="translate(218.3 325.5) rotate(73) scale(0.69)">
    <ellipse cx="0" cy="7" rx="13" ry="20"/>
    <path d="M0,-13 L-3,-28 L2,-15 Z" transform="rotate(-35 0 -13)"/>
    <path d="M0,-13 L-2,-30 L3,-15 Z" transform="rotate(-15 0 -13)"/>
    <path d="M0,-13 L-2,-31 L3,-16 Z"/>
    <path d="M0,-13 L2,-30 L-3,-15 Z" transform="rotate(15 0 -13)"/>
    <path d="M0,-13 L3,-28 L-2,-15 Z" transform="rotate(35 0 -13)"/></g>
<g transform="translate(297.4 335.4) rotate(245) scale(0.90)">
    <path d="M-17,9 Q0,-15 17,9 Q0,3 -17,9 Z"/>
    <circle cx="-5" cy="4" r="1.1"/><circle cx="5" cy="4" r="1.1"/><circle cx="0" cy="-2" r="1.1"/></g>
<g transform="translate(428.2 353.8) rotate(155) scale(1.02)">
    <path d="M0,-4 C-15,-4 -15,11 0,21 C15,11 15,-4 0,-4 Z"/>
    <path d="M0,-4 L-8,-13 L0,-8 L8,-13 Z"/>
    <circle cx="-5" cy="6" r="1.1"/><circle cx="5" cy="6" r="1.1"/>
    <circle cx="0" cy="12" r="1.1"/><circle cx="-6" cy="14" r="1.1"/><circle cx="6" cy="14" r="1.1"/></g>
<g transform="translate(39.7 423.5) rotate(129) scale(0.79)">
    <circle cx="0" cy="-9" r="5"/>
    <circle cx="-6" cy="-3" r="5"/><circle cx="6" cy="-3" r="5"/>
    <circle cx="-10" cy="4" r="5"/><circle cx="0" cy="5" r="5"/><circle cx="10" cy="4" r="5"/>
    <circle cx="-4" cy="12" r="5"/><circle cx="6" cy="13" r="5"/>
    <rect x="-1.4" y="-20" width="2.8" height="8" rx="1.4"/>
    <ellipse cx="5" cy="-19" rx="5" ry="2.6" transform="rotate(-25 5 -19)"/></g>
<g transform="translate(221.0 427.5) rotate(259) scale(1.02)">
    <ellipse cx="0" cy="7" rx="13" ry="20"/>
    <path d="M0,-13 L-3,-28 L2,-15 Z" transform="rotate(-35 0 -13)"/>
    <path d="M0,-13 L-2,-30 L3,-15 Z" transform="rotate(-15 0 -13)"/>
    <path d="M0,-13 L-2,-31 L3,-16 Z"/>
    <path d="M0,-13 L2,-30 L-3,-15 Z" transform="rotate(15 0 -13)"/>
    <path d="M0,-13 L3,-28 L-2,-15 Z" transform="rotate(35 0 -13)"/></g>
<g transform="translate(338.4 434.2) rotate(187) scale(0.96)">
    <path d="M0,-4 C-15,-4 -15,11 0,21 C15,11 15,-4 0,-4 Z"/>
    <path d="M0,-4 L-8,-13 L0,-8 L8,-13 Z"/>
    <circle cx="-5" cy="6" r="1.1"/><circle cx="5" cy="6" r="1.1"/>
    <circle cx="0" cy="12" r="1.1"/><circle cx="-6" cy="14" r="1.1"/><circle cx="6" cy="14" r="1.1"/></g>
<g transform="translate(487.2 459.1) rotate(329) scale(0.77)">
    <circle cx="0" cy="-9" r="5"/>
    <circle cx="-6" cy="-3" r="5"/><circle cx="6" cy="-3" r="5"/>
    <circle cx="-10" cy="4" r="5"/><circle cx="0" cy="5" r="5"/><circle cx="10" cy="4" r="5"/>
    <circle cx="-4" cy="12" r="5"/><circle cx="6" cy="13" r="5"/>
    <rect x="-1.4" y="-20" width="2.8" height="8" rx="1.4"/>
    <ellipse cx="5" cy="-19" rx="5" ry="2.6" transform="rotate(-25 5 -19)"/></g>
</g>
</svg>